%
M48
M72
T01C0.0315
T02C0.0320
T03C0.0354
T04C0.0400
%
T01
X4771Y16125
X4771Y15125
X4771Y14125
X4771Y13125
X4771Y12125
X4771Y11125
X4771Y10125
X4771Y9125
X4771Y8125
X4771Y7125
X4771Y6125
X4771Y5125
X4771Y4125
X4771Y3125
X4771Y2125
X10771Y2125
X10771Y3125
X10771Y4125
X10771Y5125
X10771Y6125
X10771Y7125
X10771Y8125
X10771Y9125
X10771Y10125
X10771Y11125
X10771Y12125
X10771Y13125
X10771Y14125
X10771Y15125
X10771Y16125
T02
X6223Y16105
X6223Y15105
X6223Y14105
X6223Y13105
X6223Y12105
X6223Y11105
X6223Y10105
X6223Y8499
X6223Y7499
X6223Y6499
X6223Y5499
X6223Y4499
X6223Y3499
X6223Y2499
X9223Y2499
X9223Y3499
X9223Y4499
X9223Y5499
X9223Y6499
X9223Y7499
X9223Y8499
X9223Y10105
X9223Y11105
X9223Y12105
X9223Y13105
X9223Y14105
X9223Y15105
X9223Y16105
T03
X14434Y16909
X14434Y16079
X15434Y16079
X15434Y16909
X19552Y16909
X19552Y16079
X20552Y16079
X20552Y16909
X24670Y16909
X24670Y16079
X25670Y16079
X25670Y16909
X29788Y16909
X30788Y16909
X30788Y16079
X29788Y16079
X34906Y16079
X34906Y16909
X35906Y16909
X35906Y16079
X35906Y4662
X34906Y4662
X34906Y5492
X35906Y5492
X30788Y5492
X29788Y5492
X29788Y4662
X30788Y4662
X25670Y4662
X24670Y4662
X24670Y5492
X25670Y5492
X20552Y5492
X19552Y5492
X19552Y4662
X20552Y4662
X15434Y4662
X14434Y4662
X14434Y5492
X15434Y5492
T04
X13934Y13749
X14934Y13749
X15934Y13749
X19052Y13749
X20052Y13749
X21052Y13749
X24170Y13749
X25170Y13749
X26170Y13749
X29288Y13749
X30288Y13749
X31288Y13749
X34406Y13749
X35406Y13749
X36406Y13749
X36406Y2332
X35406Y2332
X34406Y2332
X31288Y2332
X30288Y2332
X29288Y2332
X26170Y2332
X25170Y2332
X24170Y2332
X21052Y2332
X20052Y2332
X19052Y2332
X15934Y2332
X14934Y2332
X13934Y2332
X3526Y5076
X2526Y5076
X1526Y5076
X1526Y6076
X2526Y6076
X3526Y6076
X3526Y7086
X2526Y7086
X1526Y7086
X1526Y8086
X2526Y8086
X3526Y8086
X3526Y9105
X2526Y9105
X1526Y9105
X1526Y10105
X2526Y10105
X3526Y10105
X3526Y11125
X2526Y11125
X1526Y11125
X1526Y12125
X2526Y12125
X3526Y12125
M30
