G75*
%MOIN*%
%OFA0B0*%
%FSLAX24Y24*%
%IPPOS*%
%LPD*%
%AMOC8*
5,1,8,0,0,1.08239X$1,22.5*
%
%ADD10C,0.0160*%
%ADD11C,0.0594*%
%ADD12R,0.0780X0.0780*%
%ADD13C,0.0780*%
%ADD14C,0.0560*%
%ADD15OC8,0.0780*%
%ADD16R,0.0740X0.0740*%
%ADD17C,0.0740*%
D10*
X000180Y000180D02*
X038369Y000180D01*
X038369Y023408D01*
X000180Y023408D01*
X000180Y000180D01*
D11*
X014434Y004662D03*
X015434Y004662D03*
X015434Y005492D03*
X014434Y005492D03*
X019552Y005492D03*
X020552Y005492D03*
X020552Y004662D03*
X019552Y004662D03*
X024670Y004662D03*
X025670Y004662D03*
X025670Y005492D03*
X024670Y005492D03*
X029788Y005492D03*
X030788Y005492D03*
X030788Y004662D03*
X029788Y004662D03*
X034906Y004662D03*
X035906Y004662D03*
X035906Y005492D03*
X034906Y005492D03*
X034906Y016079D03*
X034906Y016909D03*
X035906Y016909D03*
X035906Y016079D03*
X030788Y016079D03*
X029788Y016079D03*
X029788Y016909D03*
X030788Y016909D03*
X025670Y016909D03*
X025670Y016079D03*
X024670Y016079D03*
X024670Y016909D03*
X020552Y016909D03*
X020552Y016079D03*
X019552Y016079D03*
X019552Y016909D03*
X015434Y016909D03*
X015434Y016079D03*
X014434Y016079D03*
X014434Y016909D03*
D12*
X013934Y013749D03*
X019052Y013749D03*
X024170Y013749D03*
X029288Y013749D03*
X034406Y013749D03*
X034406Y002332D03*
X029288Y002332D03*
X024170Y002332D03*
X019052Y002332D03*
X013934Y002332D03*
X001526Y005076D03*
X001526Y007086D03*
X001526Y009105D03*
X001526Y011125D03*
D13*
X014934Y013749D03*
X015934Y013749D03*
X020052Y013749D03*
X021052Y013749D03*
X025170Y013749D03*
X026170Y013749D03*
X030288Y013749D03*
X031288Y013749D03*
X035406Y013749D03*
X036406Y013749D03*
X036406Y002332D03*
X035406Y002332D03*
X031288Y002332D03*
X030288Y002332D03*
X026170Y002332D03*
X025170Y002332D03*
X021052Y002332D03*
X020052Y002332D03*
X015934Y002332D03*
X014934Y002332D03*
D14*
X009483Y002499D02*
X008963Y002499D01*
X008963Y003499D02*
X009483Y003499D01*
X009483Y004499D02*
X008963Y004499D01*
X008963Y005499D02*
X009483Y005499D01*
X009483Y006499D02*
X008963Y006499D01*
X008963Y007499D02*
X009483Y007499D01*
X009483Y008499D02*
X008963Y008499D01*
X008963Y010105D02*
X009483Y010105D01*
X009483Y011105D02*
X008963Y011105D01*
X008963Y012105D02*
X009483Y012105D01*
X009483Y013105D02*
X008963Y013105D01*
X008963Y014105D02*
X009483Y014105D01*
X009483Y015105D02*
X008963Y015105D01*
X008963Y016105D02*
X009483Y016105D01*
X006483Y016105D02*
X005963Y016105D01*
X005963Y015105D02*
X006483Y015105D01*
X006483Y014105D02*
X005963Y014105D01*
X005963Y013105D02*
X006483Y013105D01*
X006483Y012105D02*
X005963Y012105D01*
X005963Y011105D02*
X006483Y011105D01*
X006483Y010105D02*
X005963Y010105D01*
X005963Y008499D02*
X006483Y008499D01*
X006483Y007499D02*
X005963Y007499D01*
X005963Y006499D02*
X006483Y006499D01*
X006483Y005499D02*
X005963Y005499D01*
X005963Y004499D02*
X006483Y004499D01*
X006483Y003499D02*
X005963Y003499D01*
X005963Y002499D02*
X006483Y002499D01*
D15*
X003526Y005076D03*
X002526Y005076D03*
X002526Y006076D03*
X001526Y006076D03*
X002526Y007086D03*
X003526Y007086D03*
X003526Y008086D03*
X002526Y008086D03*
X001526Y008086D03*
X002526Y009105D03*
X003526Y009105D03*
X003526Y010105D03*
X002526Y010105D03*
X001526Y010105D03*
X002526Y011125D03*
X003526Y011125D03*
X003526Y012125D03*
X002526Y012125D03*
X001526Y012125D03*
X003526Y006076D03*
D16*
X004771Y016125D03*
D17*
X004771Y015125D03*
X004771Y014125D03*
X004771Y013125D03*
X004771Y012125D03*
X004771Y011125D03*
X004771Y010125D03*
X004771Y009125D03*
X004771Y008125D03*
X004771Y007125D03*
X004771Y006125D03*
X004771Y005125D03*
X004771Y004125D03*
X004771Y003125D03*
X004771Y002125D03*
X010771Y002125D03*
X010771Y003125D03*
X010771Y004125D03*
X010771Y005125D03*
X010771Y006125D03*
X010771Y007125D03*
X010771Y008125D03*
X010771Y009125D03*
X010771Y010125D03*
X010771Y011125D03*
X010771Y012125D03*
X010771Y013125D03*
X010771Y014125D03*
X010771Y015125D03*
X010771Y016125D03*
M02*
